<svg xmlns="http://www.w3.org/2000/svg" width="300" height="300" fill="none" viewBox="0 0 300 300"><path fill="#000" d="M75 25C61.25 25 50.125 36.25 50.125 50L50 250C50 263.75 61.125 275 74.875 275H225C238.75 275 250 263.75 250 250V100L175 25H75Z"/><path fill="#fff" stroke="#000" stroke-width="5" d="M184.779 54.5028L167.014 72.375L177.126 82.5476L195.323 64.6563L197.78 62.24L199.314 65.3263C205.255 77.28 202.752 92.1278 192.948 101.991C184.046 110.948 171.514 113.637 160.507 109.972L120.33 150.393C117.537 153.202 113.222 153.202 110.429 150.393L100.077 139.978C96.9696 137.364 96.4797 132.422 99.6451 129.864L139.725 89.5405C136.077 78.4786 138.74 65.8742 147.646 56.914C157.507 46.9938 172.263 45.0339 184.052 50.4702L187.299 51.9672L184.779 54.5028Z"/><path fill="#fff" stroke="#000" stroke-width="5" d="M201.768 127.402L202.5 128.134V129.17V150V152.5H200H179.17H178.134L177.402 151.768L115.966 90.3318L114.198 88.5641L115.966 86.7963L136.796 65.9659L138.564 64.1981L140.332 65.9659L201.768 127.402ZM134.388 60.0223L136.156 61.79L134.388 63.5578L113.558 84.3882L111.79 86.156L110.022 84.3882L99.857 74.223C96.7143 71.0803 96.7143 65.9979 99.857 62.8552L112.855 49.857C115.998 46.7143 121.08 46.7143 124.223 49.857L134.388 60.0223Z"/><path fill="#fff" stroke="#000" stroke-width="5" d="M183.341 258.459L175.454 222.872L201.685 198.953L205.886 195.121L200.222 194.615L165.797 191.541L152.319 158.066L150 152.307L147.681 158.066L134.203 191.541L99.7776 194.615L94.1137 195.121L98.3155 198.953L124.546 222.872L116.659 258.459L115.356 264.341L120.441 261.11L150 242.33L179.559 261.11L184.644 264.341L183.341 258.459Z"/></svg>