<svg width="300" height="300" viewBox="0 0 300 300" fill="none" xmlns="http://www.w3.org/2000/svg">
  <path d="M60 0C43.5 0 30.15 13.5 30.15 30L30 270C30 286.5 43.35 300 59.85 300H240C256.5 300 270 286.5 270 270V90L180 0H60Z" fill="black" />
  <path d="M193.06 28.67L171.066 50.7975L183.585 63.3921L206.114 41.241L209.156 38.2494L211.055 42.0705C218.41 56.8703 215.311 75.2533 203.174 87.4649C192.152 98.5545 176.637 101.884 163.01 97.3461L113.269 147.391C109.811 150.869 104.469 150.869 101.011 147.391L88.1953 134.496C84.3482 131.26 83.7417 125.141 87.6606 121.974L137.281 72.05C132.765 58.3543 136.062 42.7489 147.088 31.6553C159.296 19.3731 177.565 16.9466 192.16 23.6772L196.18 25.5307L193.06 28.67Z" fill="white" stroke="black" stroke-width="5" />
  <path d="M214.092 118.926L214.998 119.833V121.115V146.905V150H211.903H186.115H184.832L183.926 149.094L107.866 73.0299L105.677 70.8413L107.866 68.6526L133.654 42.8626L135.843 40.6739L138.032 42.8626L214.092 118.926ZM130.673 35.5038L132.862 37.6924L130.673 39.8811L104.884 65.6711L102.696 67.8598L100.507 65.6711L87.922 53.0856C84.0312 49.1947 84.0312 42.9022 87.922 39.0112L104.014 22.9182C107.905 19.0273 114.197 19.0273 118.088 22.9182L130.673 35.5038Z" fill="white" stroke="black" stroke-width="5" />
  <path d="M188.778 273.175L179.605 231.881L210.114 204.126L215 199.68L208.412 199.093L168.373 195.526L152.697 156.683L150 150L147.303 156.683L131.627 195.526L91.5876 199.093L85 199.68L89.887 204.126L120.395 231.881L111.222 273.175L109.706 280L115.621 276.251L150 254.459L184.38 276.251L190.294 280L188.778 273.175Z" fill="white" stroke="black" stroke-width="5" />
</svg>
